<?xml version="1.0" encoding="utf-8"?>
<!-- Generator: Adobe Illustrator 24.0.0, SVG Export Plug-In . SVG Version: 6.00 Build 0)  -->
<!DOCTYPE svg PUBLIC "-//W3C//DTD SVG 1.1//EN" "http://www.w3.org/Graphics/SVG/1.1/DTD/svg11.dtd" [
	<!ENTITY st0 "fill:none;">
	<!ENTITY st1 "fill:#E60028;">
	<!ENTITY st2 "fill:#FFFFFF;">
]>
<svg version="1.1" id="Calque_1" xmlns="http://www.w3.org/2000/svg" xmlns:xlink="http://www.w3.org/1999/xlink" x="0px" y="0px"
	 viewBox="0 0 89.4103928 53.8582687" style="enable-background:new 0 0 89.4103928 53.8582687;" xml:space="preserve">
<rect style="&st0;" width="89.4103928" height="53.8582687"/>
<g>
	<path d="M19.2351589,25.4505672l1.290823,0.2582321c3.2389183,0.6571007,4.6471653,2.0653458,4.6471653,4.6471596
		c0,3.1214886-2.3000278,4.7879658-6.5717087,4.7879658h-5.726862v-3.2858505
		c1.8776064,0.3754883,3.8492565,0.5867844,5.4921837,0.5867844c2.4643898,0,3.7082767-0.6572723,3.7082767-1.9480934
		c0-1.2908192-0.6337204-1.7134132-3.3797264-2.2532616l-1.2908211-0.2580605
		c-3.2155371-0.6337185-4.6471663-2.0655193-4.6471663-4.6471577c0-2.9103642,2.3469648-4.6237774,6.3370295-4.6237774h5.1165237
		v3.2858486c-1.8071175-0.3990402-3.3327904-0.5867825-4.8818455-0.5867825c-2.2061577,0-3.4735975,0.6806545-3.4735975,1.8542213
		C15.8554335,24.4647427,16.5360889,24.9107189,19.2351589,25.4505672z M41.3676834,26.9292164v8.2147083h-5.2337227
		c-5.9615421,0-9.4351406-3.0042343-9.4351406-8.2146225c0-5.2105598,3.4735985-8.2147942,9.4351406-8.2147942h4.0603828v3.1919765
		c-1.3846931-0.3285503-2.8634338-0.4929104-4.248127-0.4929104c-3.8492546,0-6.0787945,2.0419636-6.0787945,5.515728
		c0,3.3797207,2.2530918,5.3981323,6.0787945,5.3981323h2.4879456l-0.0000534-5.3982182H41.3676834z"/>
</g>
<rect x="48.3079872" y="12.7559633" style="&st1;" width="28.3465023" height="12.7559052"/>
<rect x="48.3080101" y="28.3463993" width="28.3464794" height="12.7559052"/>
<rect x="48.3079872" y="25.5118103" style="&st2;" width="28.3465023" height="2.8346457"/>
</svg>
